Digital Performer 8 101 Working With Audio
26 videos | 77 minutes | by Alexander Adhami
SYNTHiC4TE | Nov 06 2012 | 165 MB


DP8 is a killer audio recorder and editor. Check out all of its "audacious" power in this introductory audio course by expert Alexander Adhami...

Want to learn all about audio in DP8? Well, you've come to right place. Join Alexander Adhami as he takes you on an audio adventure explaining DP8's audio implementation from track creation to final bounce!

DP's audio capabilities have always been great, but now, in DP8, they've reached a whole new level! In this introductory course you'll learn all of the basics to get you up and recording fast. You'll learn about setting up all the different kinds of tracks. You'll see Alexander's best practices of audio file management with his in-depth tutorials on importing, exporting and sample rates. Then there's the powerful conductor track and the more powerful SoundBite technology
From there, Alexander introduces you audio editing and some of the powerful, cool plugins that make DP8 stand out in the DAW crowd!




Format                                   : MPEG-4
Format profile                           : Base Media / Version 2
Codec ID                                 : mp42
File size                                : 4.93 MiB
Duration                                 : 1mn 15s
Overall bit rate                         : 546 Kbps
Encoded date                             : UTC 2012-09-27 13:04:29
Tagged date                              : UTC 2012-09-27 20:04:29
Writing application                      : Sorenson Squeeze
Comment                                  : Encoded by 

Video
ID                                       : 2
Format                                   : AVC
Format/Info                              : Advanced Video Codec
Format profile                           : Main@L3.1
Format settings, CABAC                   : Yes
Format settings, ReFrames                : 4 frames
Codec ID                                 : avc1
Codec ID/Info                            : Advanced Video Coding
Duration                                 : 1mn 15s
Bit rate mode                            : Variable
Bit rate                                 : 444 Kbps
Width                                    : 1 280 pixels
Height                                   : 720 pixels
Display aspect ratio                     : 16:9
Frame rate mode                          : Constant
Frame rate                               : 30.000 fps
Color space                              : YUV
Chroma subsampling                       : 4:2:0
Bit depth                                : 8 bits
Scan type                                : Progressive
Bits/(Pixel*Frame)                       : 0.016
Stream size                              : 4.01 MiB (81%)
Writing library                          : x264 core 115
Encoded date                             : UTC 2012-09-27 13:04:29
Tagged date                              : UTC 2012-09-27 13:04:29

Audio
ID                                       : 1
Format                                   : AAC
Format/Info                              : Advanced Audio Codec
Format profile                           : LC
Codec ID                                 : 40
Duration                                 : 1mn 14s
Bit rate mode                            : Constant
Bit rate                                 : 96.0 Kbps
Channel(s)                               : 2 channels
Channel positions                        : Front: L R
Sampling rate                            : 44.1 KHz
Compression mode                         : Lossy
Stream size                              : 877 KiB (17%)
Encoded date                             : UTC 2012-09-27 13:04:29
Tagged date                              : UTC 2012-09-27 13:04:29



1: Setting up & Creating Tracks 

1. Hardware Setup

2. Opening a New Session

3. Creating a Mono Track

4. Creating a Stereo Track

5. Creating an Auxiliary Track

6. Master Fader

7. Create a New Template


2: Creating and Managing Audio

8. Recording Audio with A Click

9. Input Monitoring Mode

10. Transport Tips

11. Conductor Track

12. Left and Right Sidebars

13. Importing Audio Soundbites Folder

14. Markers

15. Sample Rate Conversions

16. Loop Recording

17. Sequence Editor


3: Editing and FX

18. Basic Editing Tools

19. Dynamics Plug-ins

20. Convolution Reverb

21. Guitar Effects Plug-ins

22. Channel Strip

23. Undo History

24. Compact project

25. Shortcuts

26. Bouncing to Disk 
